<?xml version="1.0" encoding="UTF-8" standalone="no"?>
<!DOCTYPE svg PUBLIC "-//W3C//DTD SVG 1.1//EN"
 "http://www.w3.org/Graphics/SVG/1.1/DTD/svg11.dtd">
<!-- Generated by graphviz version 2.44.1 (20200629.0846)
 -->
<!-- Title: include/libquat.h Pages: 1 -->
<svg width="642pt" height="84pt"
 viewBox="0.00 0.00 641.50 84.00" xmlns="http://www.w3.org/2000/svg" xmlns:xlink="http://www.w3.org/1999/xlink">
<g id="graph0" class="graph" transform="scale(1 1) rotate(0) translate(4 80)">
<title>include/libquat.h</title>
<polygon fill="white" stroke="transparent" points="-4,4 -4,-80 637.5,-80 637.5,4 -4,4"/>
<!-- Node1 -->
<g id="node1" class="node">
<title>Node1</title>
<g id="a_node1"><a xlink:title="Library that provides data types for 3D vectors and quaternions, inter&#45;conversions and related operat...">
<polygon fill="#bfbfbf" stroke="black" points="298.5,-56.5 298.5,-75.5 385.5,-75.5 385.5,-56.5 298.5,-56.5"/>
<text text-anchor="middle" x="342" y="-63.5" font-family="Helvetica,sans-Serif" font-size="10.00">include/libquat.h</text>
</a>
</g>
</g>
<!-- Node2 -->
<g id="node2" class="node">
<title>Node2</title>
<g id="a_node2"><a xlink:href="../../dd/dc7/libquat__err_8c.html" target="_top" xlink:title="API functions to handle library errors.">
<polygon fill="white" stroke="black" points="0,-0.5 0,-19.5 86,-19.5 86,-0.5 0,-0.5"/>
<text text-anchor="middle" x="43" y="-7.5" font-family="Helvetica,sans-Serif" font-size="10.00">src/libquat_err.c</text>
</a>
</g>
</g>
<!-- Node1&#45;&gt;Node2 -->
<g id="edge1" class="edge">
<title>Node1&#45;&gt;Node2</title>
<path fill="none" stroke="midnightblue" d="M288.17,-55.28C230.42,-44.85 139.81,-28.48 86.43,-18.84"/>
<polygon fill="midnightblue" stroke="midnightblue" points="287.74,-58.76 298.2,-57.09 288.98,-51.87 287.74,-58.76"/>
</g>
<!-- Node3 -->
<g id="node3" class="node">
<title>Node3</title>
<g id="a_node3"><a xlink:href="../../da/d4a/libquat__internal_8c.html" target="_top" xlink:title="API functions to handle library errors.">
<polygon fill="white" stroke="black" points="104.5,-0.5 104.5,-19.5 211.5,-19.5 211.5,-0.5 104.5,-0.5"/>
<text text-anchor="middle" x="158" y="-7.5" font-family="Helvetica,sans-Serif" font-size="10.00">src/libquat_internal.c</text>
</a>
</g>
</g>
<!-- Node1&#45;&gt;Node3 -->
<g id="edge2" class="edge">
<title>Node1&#45;&gt;Node3</title>
<path fill="none" stroke="midnightblue" d="M303.05,-53.57C268.34,-43.38 218.32,-28.7 187.02,-19.52"/>
<polygon fill="midnightblue" stroke="midnightblue" points="302.26,-56.99 312.84,-56.44 304.23,-50.27 302.26,-56.99"/>
</g>
<!-- Node4 -->
<g id="node4" class="node">
<title>Node4</title>
<g id="a_node4"><a xlink:href="../../d4/d0e/libquat__quat_8cpp.html" target="_top" xlink:title="API Functions related to 3D Quaternion operations.">
<polygon fill="white" stroke="black" points="230,-0.5 230,-19.5 334,-19.5 334,-0.5 230,-0.5"/>
<text text-anchor="middle" x="282" y="-7.5" font-family="Helvetica,sans-Serif" font-size="10.00">src/libquat_quat.cpp</text>
</a>
</g>
</g>
<!-- Node1&#45;&gt;Node4 -->
<g id="edge3" class="edge">
<title>Node1&#45;&gt;Node4</title>
<path fill="none" stroke="midnightblue" d="M324.82,-49.54C314.12,-39.91 300.74,-27.87 291.82,-19.83"/>
<polygon fill="midnightblue" stroke="midnightblue" points="322.59,-52.24 332.36,-56.32 327.27,-47.03 322.59,-52.24"/>
</g>
<!-- Node5 -->
<g id="node5" class="node">
<title>Node5</title>
<g id="a_node5"><a xlink:href="../../d8/d03/libquat__vec_8cpp.html" target="_top" xlink:title="API Functions related to 3D vector operations.">
<polygon fill="white" stroke="black" points="352.5,-0.5 352.5,-19.5 453.5,-19.5 453.5,-0.5 352.5,-0.5"/>
<text text-anchor="middle" x="403" y="-7.5" font-family="Helvetica,sans-Serif" font-size="10.00">src/libquat_vec.cpp</text>
</a>
</g>
</g>
<!-- Node1&#45;&gt;Node5 -->
<g id="edge4" class="edge">
<title>Node1&#45;&gt;Node5</title>
<path fill="none" stroke="midnightblue" d="M359.47,-49.54C370.34,-39.91 383.94,-27.87 393.02,-19.83"/>
<polygon fill="midnightblue" stroke="midnightblue" points="356.97,-47.07 351.8,-56.32 361.61,-52.32 356.97,-47.07"/>
</g>
<!-- Node6 -->
<g id="node6" class="node">
<title>Node6</title>
<g id="a_node6"><a xlink:href="../../d8/db9/test_8c.html" target="_top" xlink:title="Simple program in C to test the different aspects of libquat library.">
<polygon fill="white" stroke="black" points="472,-0.5 472,-19.5 538,-19.5 538,-0.5 472,-0.5"/>
<text text-anchor="middle" x="505" y="-7.5" font-family="Helvetica,sans-Serif" font-size="10.00">tests/test.c</text>
</a>
</g>
</g>
<!-- Node1&#45;&gt;Node6 -->
<g id="edge5" class="edge">
<title>Node1&#45;&gt;Node6</title>
<path fill="none" stroke="midnightblue" d="M377.7,-53.17C408.4,-43 451.92,-28.59 479.29,-19.52"/>
<polygon fill="midnightblue" stroke="midnightblue" points="376.22,-49.98 367.83,-56.44 378.42,-56.62 376.22,-49.98"/>
</g>
<!-- Node7 -->
<g id="node7" class="node">
<title>Node7</title>
<g id="a_node7"><a xlink:href="../../df/dac/test_8cpp.html" target="_top" xlink:title="Simple program in C++ to test the different aspects of libquat library.">
<polygon fill="white" stroke="black" points="556.5,-0.5 556.5,-19.5 633.5,-19.5 633.5,-0.5 556.5,-0.5"/>
<text text-anchor="middle" x="595" y="-7.5" font-family="Helvetica,sans-Serif" font-size="10.00">tests/test.cpp</text>
</a>
</g>
</g>
<!-- Node1&#45;&gt;Node7 -->
<g id="edge6" class="edge">
<title>Node1&#45;&gt;Node7</title>
<path fill="none" stroke="midnightblue" d="M392.01,-54.33C440.27,-44.02 512.32,-28.65 556.34,-19.25"/>
<polygon fill="midnightblue" stroke="midnightblue" points="391.14,-50.93 382.09,-56.44 392.6,-57.78 391.14,-50.93"/>
</g>
</g>
</svg>
