<?xml version="1.0" encoding="UTF-8" standalone="no"?>
<!DOCTYPE svg PUBLIC "-//W3C//DTD SVG 1.1//EN"
 "http://www.w3.org/Graphics/SVG/1.1/DTD/svg11.dtd">
<!-- Generated by graphviz version 6.0.1 (20220911.1526)
 -->
<!-- Title: include/libquat.h Pages: 1 -->
<svg width="642pt" height="82pt"
 viewBox="0.00 0.00 641.50 82.00" xmlns="http://www.w3.org/2000/svg" xmlns:xlink="http://www.w3.org/1999/xlink">
<g id="graph0" class="graph" transform="scale(1 1) rotate(0) translate(4 78)">
<title>include/libquat.h</title>
<!-- Node1 -->
<g id="node1" class="node">
<title>Node1</title>
<g id="a_node1"><a xlink:title="Library that provides data types for 3D vectors and quaternions, inter&#45;conversions and related operat...">
<polygon fill="#999999" stroke="#666666" points="385.5,-74 298.5,-74 298.5,-55 385.5,-55 385.5,-74"/>
<text text-anchor="middle" x="342" y="-62" font-family="Helvetica,sans-Serif" font-size="10.00">include/libquat.h</text>
</a>
</g>
</g>
<!-- Node2 -->
<g id="node2" class="node">
<title>Node2</title>
<g id="a_node2"><a xlink:href="../../dd/dc7/libquat__err_8c.html" target="_top" xlink:title="API functions to handle library errors.">
<polygon fill="white" stroke="#666666" points="86,-19 0,-19 0,0 86,0 86,-19"/>
<text text-anchor="middle" x="43" y="-7" font-family="Helvetica,sans-Serif" font-size="10.00">src/libquat_err.c</text>
</a>
</g>
</g>
<!-- Node1&#45;&gt;Node2 -->
<g id="edge1" class="edge">
<title>Node1&#45;&gt;Node2</title>
<path fill="none" stroke="#63b8ff" d="M288.17,-53.96C230.42,-43.72 139.81,-27.66 86.43,-18.2"/>
<polygon fill="#63b8ff" stroke="#63b8ff" points="287.75,-57.44 298.2,-55.74 288.97,-50.54 287.75,-57.44"/>
</g>
<!-- Node3 -->
<g id="node3" class="node">
<title>Node3</title>
<g id="a_node3"><a xlink:href="../../da/d4a/libquat__internal_8c.html" target="_top" xlink:title="API functions to handle library errors.">
<polygon fill="white" stroke="#666666" points="211.5,-19 104.5,-19 104.5,0 211.5,0 211.5,-19"/>
<text text-anchor="middle" x="158" y="-7" font-family="Helvetica,sans-Serif" font-size="10.00">src/libquat_internal.c</text>
</a>
</g>
</g>
<!-- Node1&#45;&gt;Node3 -->
<g id="edge2" class="edge">
<title>Node1&#45;&gt;Node3</title>
<path fill="none" stroke="#63b8ff" d="M302.71,-52.18C268.3,-42.27 219.04,-28.08 187.79,-19.08"/>
<polygon fill="#63b8ff" stroke="#63b8ff" points="301.86,-55.58 312.44,-54.98 303.8,-48.85 301.86,-55.58"/>
</g>
<!-- Node4 -->
<g id="node4" class="node">
<title>Node4</title>
<g id="a_node4"><a xlink:href="../../d4/d0e/libquat__quat_8cpp.html" target="_top" xlink:title="API Functions related to 3D Quaternion operations.">
<polygon fill="white" stroke="#666666" points="334,-19 230,-19 230,0 334,0 334,-19"/>
<text text-anchor="middle" x="282" y="-7" font-family="Helvetica,sans-Serif" font-size="10.00">src/libquat_quat.cpp</text>
</a>
</g>
</g>
<!-- Node1&#45;&gt;Node4 -->
<g id="edge3" class="edge">
<title>Node1&#45;&gt;Node4</title>
<path fill="none" stroke="#63b8ff" d="M324.82,-48.32C314.12,-38.87 300.74,-27.06 291.82,-19.17"/>
<polygon fill="#63b8ff" stroke="#63b8ff" points="322.55,-50.99 332.36,-54.98 327.18,-45.74 322.55,-50.99"/>
</g>
<!-- Node5 -->
<g id="node5" class="node">
<title>Node5</title>
<g id="a_node5"><a xlink:href="../../d8/d03/libquat__vec_8cpp.html" target="_top" xlink:title="API Functions related to 3D vector operations.">
<polygon fill="white" stroke="#666666" points="453.5,-19 352.5,-19 352.5,0 453.5,0 453.5,-19"/>
<text text-anchor="middle" x="403" y="-7" font-family="Helvetica,sans-Serif" font-size="10.00">src/libquat_vec.cpp</text>
</a>
</g>
</g>
<!-- Node1&#45;&gt;Node5 -->
<g id="edge4" class="edge">
<title>Node1&#45;&gt;Node5</title>
<path fill="none" stroke="#63b8ff" d="M359.47,-48.32C370.34,-38.87 383.94,-27.06 393.02,-19.17"/>
<polygon fill="#63b8ff" stroke="#63b8ff" points="357.05,-45.78 351.8,-54.98 361.65,-51.07 357.05,-45.78"/>
</g>
<!-- Node6 -->
<g id="node6" class="node">
<title>Node6</title>
<g id="a_node6"><a xlink:href="../../d8/db9/test_8c.html" target="_top" xlink:title="Simple program in C to test the different aspects of libquat library.">
<polygon fill="white" stroke="#666666" points="538,-19 472,-19 472,0 538,0 538,-19"/>
<text text-anchor="middle" x="505" y="-7" font-family="Helvetica,sans-Serif" font-size="10.00">tests/test.c</text>
</a>
</g>
</g>
<!-- Node1&#45;&gt;Node6 -->
<g id="edge5" class="edge">
<title>Node1&#45;&gt;Node6</title>
<path fill="none" stroke="#63b8ff" d="M377.99,-51.8C408.41,-41.91 451.28,-27.97 478.61,-19.08"/>
<polygon fill="#63b8ff" stroke="#63b8ff" points="376.62,-48.56 368.19,-54.98 378.78,-55.22 376.62,-48.56"/>
</g>
<!-- Node7 -->
<g id="node7" class="node">
<title>Node7</title>
<g id="a_node7"><a xlink:href="../../df/dac/test_8cpp.html" target="_top" xlink:title="Simple program in C++ to test the different aspects of libquat library.">
<polygon fill="white" stroke="#666666" points="633.5,-19 556.5,-19 556.5,0 633.5,0 633.5,-19"/>
<text text-anchor="middle" x="595" y="-7" font-family="Helvetica,sans-Serif" font-size="10.00">tests/test.cpp</text>
</a>
</g>
</g>
<!-- Node1&#45;&gt;Node7 -->
<g id="edge6" class="edge">
<title>Node1&#45;&gt;Node7</title>
<path fill="none" stroke="#63b8ff" d="M392.56,-52.91C440.73,-42.82 512.24,-27.84 556.11,-18.65"/>
<polygon fill="#63b8ff" stroke="#63b8ff" points="391.72,-49.51 382.65,-54.98 393.15,-56.36 391.72,-49.51"/>
</g>
</g>
</svg>
