<?xml version="1.0" encoding="UTF-8" standalone="no"?>
<!DOCTYPE svg PUBLIC "-//W3C//DTD SVG 1.1//EN"
 "http://www.w3.org/Graphics/SVG/1.1/DTD/svg11.dtd">
<!-- Generated by graphviz version 2.44.1 (20200629.0846)
 -->
<!-- Title: include/libquat.h Pages: 1 -->
<svg width="622pt" height="84pt"
 viewBox="0.00 0.00 621.50 84.00" xmlns="http://www.w3.org/2000/svg" xmlns:xlink="http://www.w3.org/1999/xlink">
<g id="graph0" class="graph" transform="scale(1 1) rotate(0) translate(4 80)">
<title>include/libquat.h</title>
<polygon fill="white" stroke="transparent" points="-4,4 -4,-80 617.5,-80 617.5,4 -4,4"/>
<!-- Node1 -->
<g id="node1" class="node">
<title>Node1</title>
<g id="a_node1"><a xlink:title="Library that provides data types for 3D vectors and quaternions, inter&#45;conversions and related operat...">
<polygon fill="#bfbfbf" stroke="black" points="288.5,-56.5 288.5,-75.5 375.5,-75.5 375.5,-56.5 288.5,-56.5"/>
<text text-anchor="middle" x="332" y="-63.5" font-family="Helvetica,sans-Serif" font-size="10.00">include/libquat.h</text>
</a>
</g>
</g>
<!-- Node2 -->
<g id="node2" class="node">
<title>Node2</title>
<g id="a_node2"><a xlink:href="../../dd/dc7/libquat__err_8c.html" target="_top" xlink:title="API functions to handle library errors.">
<polygon fill="white" stroke="black" points="0,-0.5 0,-19.5 86,-19.5 86,-0.5 0,-0.5"/>
<text text-anchor="middle" x="43" y="-7.5" font-family="Helvetica,sans-Serif" font-size="10.00">src/libquat_err.c</text>
</a>
</g>
</g>
<!-- Node1&#45;&gt;Node2 -->
<g id="edge1" class="edge">
<title>Node1&#45;&gt;Node2</title>
<path fill="none" stroke="midnightblue" d="M278.45,-54.99C223.11,-44.65 137.77,-28.71 86.46,-19.12"/>
<polygon fill="midnightblue" stroke="midnightblue" points="277.95,-58.46 288.42,-56.86 279.23,-51.58 277.95,-58.46"/>
</g>
<!-- Node3 -->
<g id="node3" class="node">
<title>Node3</title>
<g id="a_node3"><a xlink:href="../../da/d4a/libquat__internal_8c.html" target="_top" xlink:title="API functions to handle library errors.">
<polygon fill="white" stroke="black" points="104.5,-0.5 104.5,-19.5 211.5,-19.5 211.5,-0.5 104.5,-0.5"/>
<text text-anchor="middle" x="158" y="-7.5" font-family="Helvetica,sans-Serif" font-size="10.00">src/libquat_internal.c</text>
</a>
</g>
</g>
<!-- Node1&#45;&gt;Node3 -->
<g id="edge2" class="edge">
<title>Node1&#45;&gt;Node3</title>
<path fill="none" stroke="midnightblue" d="M294.74,-53.44C261.93,-43.26 214.92,-28.66 185.44,-19.52"/>
<polygon fill="midnightblue" stroke="midnightblue" points="293.84,-56.82 304.43,-56.44 295.92,-50.14 293.84,-56.82"/>
</g>
<!-- Node4 -->
<g id="node4" class="node">
<title>Node4</title>
<g id="a_node4"><a xlink:href="../../d8/d4a/libquat__quat_8c.html" target="_top" xlink:title="API Functions related to 3D Quaternion operations.">
<polygon fill="white" stroke="black" points="230,-0.5 230,-19.5 324,-19.5 324,-0.5 230,-0.5"/>
<text text-anchor="middle" x="277" y="-7.5" font-family="Helvetica,sans-Serif" font-size="10.00">src/libquat_quat.c</text>
</a>
</g>
</g>
<!-- Node1&#45;&gt;Node4 -->
<g id="edge3" class="edge">
<title>Node1&#45;&gt;Node4</title>
<path fill="none" stroke="midnightblue" d="M315.71,-49C305.96,-39.43 293.95,-27.64 285.91,-19.75"/>
<polygon fill="midnightblue" stroke="midnightblue" points="313.33,-51.57 322.92,-56.08 318.23,-46.58 313.33,-51.57"/>
</g>
<!-- Node5 -->
<g id="node5" class="node">
<title>Node5</title>
<g id="a_node5"><a xlink:href="../../d2/dd2/libquat__vec_8c.html" target="_top" xlink:title="API Functions related to 3D vector operations.">
<polygon fill="white" stroke="black" points="342.5,-0.5 342.5,-19.5 433.5,-19.5 433.5,-0.5 342.5,-0.5"/>
<text text-anchor="middle" x="388" y="-7.5" font-family="Helvetica,sans-Serif" font-size="10.00">src/libquat_vec.c</text>
</a>
</g>
</g>
<!-- Node1&#45;&gt;Node5 -->
<g id="edge4" class="edge">
<title>Node1&#45;&gt;Node5</title>
<path fill="none" stroke="midnightblue" d="M348.33,-49.25C358.26,-39.67 370.59,-27.79 378.84,-19.83"/>
<polygon fill="midnightblue" stroke="midnightblue" points="345.77,-46.86 341,-56.32 350.63,-51.9 345.77,-46.86"/>
</g>
<!-- Node6 -->
<g id="node6" class="node">
<title>Node6</title>
<g id="a_node6"><a xlink:href="../../d8/db9/test_8c.html" target="_top" xlink:title="Simple program in C to test the different aspects of libquat library.">
<polygon fill="white" stroke="black" points="452,-0.5 452,-19.5 518,-19.5 518,-0.5 452,-0.5"/>
<text text-anchor="middle" x="485" y="-7.5" font-family="Helvetica,sans-Serif" font-size="10.00">tests/test.c</text>
</a>
</g>
</g>
<!-- Node1&#45;&gt;Node6 -->
<g id="edge5" class="edge">
<title>Node1&#45;&gt;Node6</title>
<path fill="none" stroke="midnightblue" d="M365.89,-53.04C394.68,-42.88 435.29,-28.55 460.87,-19.52"/>
<polygon fill="midnightblue" stroke="midnightblue" points="364.51,-49.81 356.24,-56.44 366.84,-56.42 364.51,-49.81"/>
</g>
<!-- Node7 -->
<g id="node7" class="node">
<title>Node7</title>
<g id="a_node7"><a xlink:href="../../df/dac/test_8cpp.html" target="_top" xlink:title="Simple program in C++ to test the different aspects of libquat library.">
<polygon fill="white" stroke="black" points="536.5,-0.5 536.5,-19.5 613.5,-19.5 613.5,-0.5 536.5,-0.5"/>
<text text-anchor="middle" x="575" y="-7.5" font-family="Helvetica,sans-Serif" font-size="10.00">tests/test.cpp</text>
</a>
</g>
</g>
<!-- Node1&#45;&gt;Node7 -->
<g id="edge6" class="edge">
<title>Node1&#45;&gt;Node7</title>
<path fill="none" stroke="midnightblue" d="M380.52,-54.22C426.44,-44.01 494.45,-28.9 536.68,-19.52"/>
<polygon fill="midnightblue" stroke="midnightblue" points="379.51,-50.86 370.5,-56.44 381.03,-57.69 379.51,-50.86"/>
</g>
</g>
</svg>
