<?xml version="1.0" encoding="UTF-8" standalone="no"?>
<!DOCTYPE svg PUBLIC "-//W3C//DTD SVG 1.1//EN"
 "http://www.w3.org/Graphics/SVG/1.1/DTD/svg11.dtd">
<!-- Generated by graphviz version 2.44.1 (20200629.0846)
 -->
<!-- Title: src/libquat_quat.cpp Pages: 1 -->
<svg width="232pt" height="140pt"
 viewBox="0.00 0.00 232.00 140.00" xmlns="http://www.w3.org/2000/svg" xmlns:xlink="http://www.w3.org/1999/xlink">
<g id="graph0" class="graph" transform="scale(1 1) rotate(0) translate(4 136)">
<title>src/libquat_quat.cpp</title>
<polygon fill="white" stroke="transparent" points="-4,4 -4,-136 228,-136 228,4 -4,4"/>
<!-- Node1 -->
<g id="node1" class="node">
<title>Node1</title>
<g id="a_node1"><a xlink:title="API Functions related to 3D Quaternion operations.">
<polygon fill="#bfbfbf" stroke="black" points="37,-112.5 37,-131.5 141,-131.5 141,-112.5 37,-112.5"/>
<text text-anchor="middle" x="89" y="-119.5" font-family="Helvetica,sans-Serif" font-size="10.00">src/libquat_quat.cpp</text>
</a>
</g>
</g>
<!-- Node2 -->
<g id="node2" class="node">
<title>Node2</title>
<g id="a_node2"><a xlink:title=" ">
<polygon fill="white" stroke="#bfbfbf" points="0,-56.5 0,-75.5 44,-75.5 44,-56.5 0,-56.5"/>
<text text-anchor="middle" x="22" y="-63.5" font-family="Helvetica,sans-Serif" font-size="10.00">cmath</text>
</a>
</g>
</g>
<!-- Node1&#45;&gt;Node2 -->
<g id="edge1" class="edge">
<title>Node1&#45;&gt;Node2</title>
<path fill="none" stroke="midnightblue" d="M78.24,-112.32C68.23,-104.26 53.11,-92.08 41.07,-82.37"/>
<polygon fill="midnightblue" stroke="midnightblue" points="42.94,-79.38 32.96,-75.83 38.55,-84.83 42.94,-79.38"/>
</g>
<!-- Node3 -->
<g id="node3" class="node">
<title>Node3</title>
<g id="a_node3"><a xlink:href="../../dc/d7a/libquat_8h.html" target="_top" xlink:title="Library that provides data types for 3D vectors and quaternions, inter&#45;conversions and related operat...">
<polygon fill="white" stroke="black" points="62.5,-56.5 62.5,-75.5 115.5,-75.5 115.5,-56.5 62.5,-56.5"/>
<text text-anchor="middle" x="89" y="-63.5" font-family="Helvetica,sans-Serif" font-size="10.00">libquat.h</text>
</a>
</g>
</g>
<!-- Node1&#45;&gt;Node3 -->
<g id="edge2" class="edge">
<title>Node1&#45;&gt;Node3</title>
<path fill="none" stroke="midnightblue" d="M89,-112.08C89,-105.01 89,-94.86 89,-85.99"/>
<polygon fill="midnightblue" stroke="midnightblue" points="92.5,-85.75 89,-75.75 85.5,-85.75 92.5,-85.75"/>
</g>
<!-- Node5 -->
<g id="node5" class="node">
<title>Node5</title>
<g id="a_node5"><a xlink:href="../../d7/dd9/libquat__internal_8h.html" target="_top" xlink:title="API functions to handle library errors.">
<polygon fill="white" stroke="black" points="134,-56.5 134,-75.5 224,-75.5 224,-56.5 134,-56.5"/>
<text text-anchor="middle" x="179" y="-63.5" font-family="Helvetica,sans-Serif" font-size="10.00">libquat_internal.h</text>
</a>
</g>
</g>
<!-- Node1&#45;&gt;Node5 -->
<g id="edge4" class="edge">
<title>Node1&#45;&gt;Node5</title>
<path fill="none" stroke="midnightblue" d="M103.46,-112.32C117.5,-103.9 139.05,-90.97 155.54,-81.07"/>
<polygon fill="midnightblue" stroke="midnightblue" points="157.8,-83.8 164.58,-75.65 154.2,-77.8 157.8,-83.8"/>
</g>
<!-- Node4 -->
<g id="node4" class="node">
<title>Node4</title>
<g id="a_node4"><a xlink:title=" ">
<polygon fill="white" stroke="#bfbfbf" points="62,-0.5 62,-19.5 116,-19.5 116,-0.5 62,-0.5"/>
<text text-anchor="middle" x="89" y="-7.5" font-family="Helvetica,sans-Serif" font-size="10.00">iostream</text>
</a>
</g>
</g>
<!-- Node3&#45;&gt;Node4 -->
<g id="edge3" class="edge">
<title>Node3&#45;&gt;Node4</title>
<path fill="none" stroke="midnightblue" d="M89,-56.08C89,-49.01 89,-38.86 89,-29.99"/>
<polygon fill="midnightblue" stroke="midnightblue" points="92.5,-29.75 89,-19.75 85.5,-29.75 92.5,-29.75"/>
</g>
</g>
</svg>
