<?xml version="1.0" encoding="UTF-8" standalone="no"?>
<!DOCTYPE svg PUBLIC "-//W3C//DTD SVG 1.1//EN"
 "http://www.w3.org/Graphics/SVG/1.1/DTD/svg11.dtd">
<!-- Generated by graphviz version 2.44.1 (20200629.0846)
 -->
<!-- Title: src/libquat_internal.c Pages: 1 -->
<svg width="234pt" height="140pt"
 viewBox="0.00 0.00 234.00 140.00" xmlns="http://www.w3.org/2000/svg" xmlns:xlink="http://www.w3.org/1999/xlink">
<g id="graph0" class="graph" transform="scale(1 1) rotate(0) translate(4 136)">
<title>src/libquat_internal.c</title>
<polygon fill="white" stroke="transparent" points="-4,4 -4,-136 230,-136 230,4 -4,4"/>
<!-- Node1 -->
<g id="node1" class="node">
<title>Node1</title>
<g id="a_node1"><a xlink:title="API functions to handle library errors.">
<polygon fill="#bfbfbf" stroke="black" points="63.5,-112.5 63.5,-131.5 170.5,-131.5 170.5,-112.5 63.5,-112.5"/>
<text text-anchor="middle" x="117" y="-119.5" font-family="Helvetica,sans-Serif" font-size="10.00">src/libquat_internal.c</text>
</a>
</g>
</g>
<!-- Node2 -->
<g id="node2" class="node">
<title>Node2</title>
<g id="a_node2"><a xlink:href="../../dc/d7a/libquat_8h.html" target="_top" xlink:title="Library that provides data types for 3D vectors and quaternions, inter&#45;conversions and related operat...">
<polygon fill="white" stroke="black" points="0.5,-56.5 0.5,-75.5 53.5,-75.5 53.5,-56.5 0.5,-56.5"/>
<text text-anchor="middle" x="27" y="-63.5" font-family="Helvetica,sans-Serif" font-size="10.00">libquat.h</text>
</a>
</g>
</g>
<!-- Node1&#45;&gt;Node2 -->
<g id="edge1" class="edge">
<title>Node1&#45;&gt;Node2</title>
<path fill="none" stroke="midnightblue" d="M102.54,-112.32C88.5,-103.9 66.95,-90.97 50.46,-81.07"/>
<polygon fill="midnightblue" stroke="midnightblue" points="51.8,-77.8 41.42,-75.65 48.2,-83.8 51.8,-77.8"/>
</g>
<!-- Node4 -->
<g id="node4" class="node">
<title>Node4</title>
<g id="a_node4"><a xlink:href="../../d7/dd9/libquat__internal_8h.html" target="_top" xlink:title="API functions to handle library errors.">
<polygon fill="white" stroke="black" points="72,-56.5 72,-75.5 162,-75.5 162,-56.5 72,-56.5"/>
<text text-anchor="middle" x="117" y="-63.5" font-family="Helvetica,sans-Serif" font-size="10.00">libquat_internal.h</text>
</a>
</g>
</g>
<!-- Node1&#45;&gt;Node4 -->
<g id="edge3" class="edge">
<title>Node1&#45;&gt;Node4</title>
<path fill="none" stroke="midnightblue" d="M117,-112.08C117,-105.01 117,-94.86 117,-85.99"/>
<polygon fill="midnightblue" stroke="midnightblue" points="120.5,-85.75 117,-75.75 113.5,-85.75 120.5,-85.75"/>
</g>
<!-- Node5 -->
<g id="node5" class="node">
<title>Node5</title>
<g id="a_node5"><a xlink:title=" ">
<polygon fill="white" stroke="#bfbfbf" points="180,-56.5 180,-75.5 226,-75.5 226,-56.5 180,-56.5"/>
<text text-anchor="middle" x="203" y="-63.5" font-family="Helvetica,sans-Serif" font-size="10.00">stdio.h</text>
</a>
</g>
</g>
<!-- Node1&#45;&gt;Node5 -->
<g id="edge4" class="edge">
<title>Node1&#45;&gt;Node5</title>
<path fill="none" stroke="midnightblue" d="M130.82,-112.32C144.23,-103.9 164.82,-90.97 180.59,-81.07"/>
<polygon fill="midnightblue" stroke="midnightblue" points="182.61,-83.94 189.22,-75.65 178.89,-78.01 182.61,-83.94"/>
</g>
<!-- Node3 -->
<g id="node3" class="node">
<title>Node3</title>
<g id="a_node3"><a xlink:title=" ">
<polygon fill="white" stroke="#bfbfbf" points="0,-0.5 0,-19.5 54,-19.5 54,-0.5 0,-0.5"/>
<text text-anchor="middle" x="27" y="-7.5" font-family="Helvetica,sans-Serif" font-size="10.00">iostream</text>
</a>
</g>
</g>
<!-- Node2&#45;&gt;Node3 -->
<g id="edge2" class="edge">
<title>Node2&#45;&gt;Node3</title>
<path fill="none" stroke="midnightblue" d="M27,-56.08C27,-49.01 27,-38.86 27,-29.99"/>
<polygon fill="midnightblue" stroke="midnightblue" points="30.5,-29.75 27,-19.75 23.5,-29.75 30.5,-29.75"/>
</g>
</g>
</svg>
