<?xml version="1.0" encoding="UTF-8" standalone="no"?>
<!DOCTYPE svg PUBLIC "-//W3C//DTD SVG 1.1//EN"
 "http://www.w3.org/Graphics/SVG/1.1/DTD/svg11.dtd">
<!-- Generated by graphviz version 2.44.1 (20200629.0846)
 -->
<!-- Title: src/libquat_internal.h Pages: 1 -->
<svg width="462pt" height="84pt"
 viewBox="0.00 0.00 461.50 84.00" xmlns="http://www.w3.org/2000/svg" xmlns:xlink="http://www.w3.org/1999/xlink">
<g id="graph0" class="graph" transform="scale(1 1) rotate(0) translate(4 80)">
<title>src/libquat_internal.h</title>
<polygon fill="white" stroke="transparent" points="-4,4 -4,-80 457.5,-80 457.5,4 -4,4"/>
<!-- Node1 -->
<g id="node1" class="node">
<title>Node1</title>
<g id="a_node1"><a xlink:title="API functions to handle library errors.">
<polygon fill="#bfbfbf" stroke="black" points="166.5,-56.5 166.5,-75.5 273.5,-75.5 273.5,-56.5 166.5,-56.5"/>
<text text-anchor="middle" x="220" y="-63.5" font-family="Helvetica,sans-Serif" font-size="10.00">src/libquat_internal.h</text>
</a>
</g>
</g>
<!-- Node2 -->
<g id="node2" class="node">
<title>Node2</title>
<g id="a_node2"><a xlink:href="../../dd/dc7/libquat__err_8c.html" target="_top" xlink:title="API functions to handle library errors.">
<polygon fill="white" stroke="black" points="0,-0.5 0,-19.5 86,-19.5 86,-0.5 0,-0.5"/>
<text text-anchor="middle" x="43" y="-7.5" font-family="Helvetica,sans-Serif" font-size="10.00">src/libquat_err.c</text>
</a>
</g>
</g>
<!-- Node1&#45;&gt;Node2 -->
<g id="edge1" class="edge">
<title>Node1&#45;&gt;Node2</title>
<path fill="none" stroke="midnightblue" d="M182.1,-53.44C148.72,-43.26 100.9,-28.66 70.91,-19.52"/>
<polygon fill="midnightblue" stroke="midnightblue" points="181.37,-56.87 191.95,-56.44 183.41,-50.18 181.37,-56.87"/>
</g>
<!-- Node3 -->
<g id="node3" class="node">
<title>Node3</title>
<g id="a_node3"><a xlink:href="../../da/d4a/libquat__internal_8c.html" target="_top" xlink:title="API functions to handle library errors.">
<polygon fill="white" stroke="black" points="104.5,-0.5 104.5,-19.5 211.5,-19.5 211.5,-0.5 104.5,-0.5"/>
<text text-anchor="middle" x="158" y="-7.5" font-family="Helvetica,sans-Serif" font-size="10.00">src/libquat_internal.c</text>
</a>
</g>
</g>
<!-- Node1&#45;&gt;Node3 -->
<g id="edge2" class="edge">
<title>Node1&#45;&gt;Node3</title>
<path fill="none" stroke="midnightblue" d="M202.25,-49.54C191.19,-39.91 177.37,-27.87 168.14,-19.83"/>
<polygon fill="midnightblue" stroke="midnightblue" points="200.2,-52.4 210.04,-56.32 204.8,-47.12 200.2,-52.4"/>
</g>
<!-- Node4 -->
<g id="node4" class="node">
<title>Node4</title>
<g id="a_node4"><a xlink:href="../../d4/d0e/libquat__quat_8cpp.html" target="_top" xlink:title="API Functions related to 3D Quaternion operations.">
<polygon fill="white" stroke="black" points="230,-0.5 230,-19.5 334,-19.5 334,-0.5 230,-0.5"/>
<text text-anchor="middle" x="282" y="-7.5" font-family="Helvetica,sans-Serif" font-size="10.00">src/libquat_quat.cpp</text>
</a>
</g>
</g>
<!-- Node1&#45;&gt;Node4 -->
<g id="edge3" class="edge">
<title>Node1&#45;&gt;Node4</title>
<path fill="none" stroke="midnightblue" d="M237.75,-49.54C248.81,-39.91 262.63,-27.87 271.86,-19.83"/>
<polygon fill="midnightblue" stroke="midnightblue" points="235.2,-47.12 229.96,-56.32 239.8,-52.4 235.2,-47.12"/>
</g>
<!-- Node5 -->
<g id="node5" class="node">
<title>Node5</title>
<g id="a_node5"><a xlink:href="../../d8/d03/libquat__vec_8cpp.html" target="_top" xlink:title="API Functions related to 3D vector operations.">
<polygon fill="white" stroke="black" points="352.5,-0.5 352.5,-19.5 453.5,-19.5 453.5,-0.5 352.5,-0.5"/>
<text text-anchor="middle" x="403" y="-7.5" font-family="Helvetica,sans-Serif" font-size="10.00">src/libquat_vec.cpp</text>
</a>
</g>
</g>
<!-- Node1&#45;&gt;Node5 -->
<g id="edge4" class="edge">
<title>Node1&#45;&gt;Node5</title>
<path fill="none" stroke="midnightblue" d="M258.74,-53.57C293.26,-43.38 343.01,-28.7 374.14,-19.52"/>
<polygon fill="midnightblue" stroke="midnightblue" points="257.6,-50.26 249,-56.44 259.58,-56.97 257.6,-50.26"/>
</g>
</g>
</svg>
