<?xml version="1.0" encoding="UTF-8" standalone="no"?>
<!DOCTYPE svg PUBLIC "-//W3C//DTD SVG 1.1//EN"
 "http://www.w3.org/Graphics/SVG/1.1/DTD/svg11.dtd">
<!-- Generated by graphviz version 6.0.1 (20220911.1526)
 -->
<!-- Title: src/libquat_internal.h Pages: 1 -->
<svg width="462pt" height="82pt"
 viewBox="0.00 0.00 461.50 82.00" xmlns="http://www.w3.org/2000/svg" xmlns:xlink="http://www.w3.org/1999/xlink">
<g id="graph0" class="graph" transform="scale(1 1) rotate(0) translate(4 78)">
<title>src/libquat_internal.h</title>
<!-- Node1 -->
<g id="node1" class="node">
<title>Node1</title>
<g id="a_node1"><a xlink:title="API functions to handle library errors.">
<polygon fill="#999999" stroke="#666666" points="273.5,-74 166.5,-74 166.5,-55 273.5,-55 273.5,-74"/>
<text text-anchor="middle" x="220" y="-62" font-family="Helvetica,sans-Serif" font-size="10.00">src/libquat_internal.h</text>
</a>
</g>
</g>
<!-- Node2 -->
<g id="node2" class="node">
<title>Node2</title>
<g id="a_node2"><a xlink:href="../../dd/dc7/libquat__err_8c.html" target="_top" xlink:title="API functions to handle library errors.">
<polygon fill="white" stroke="#666666" points="86,-19 0,-19 0,0 86,0 86,-19"/>
<text text-anchor="middle" x="43" y="-7" font-family="Helvetica,sans-Serif" font-size="10.00">src/libquat_err.c</text>
</a>
</g>
</g>
<!-- Node1&#45;&gt;Node2 -->
<g id="edge1" class="edge">
<title>Node1&#45;&gt;Node2</title>
<path fill="none" stroke="#63b8ff" d="M181.78,-52.06C148.7,-42.15 101.59,-28.04 71.66,-19.08"/>
<polygon fill="#63b8ff" stroke="#63b8ff" points="180.98,-55.47 191.56,-54.98 182.99,-48.76 180.98,-55.47"/>
</g>
<!-- Node3 -->
<g id="node3" class="node">
<title>Node3</title>
<g id="a_node3"><a xlink:href="../../da/d4a/libquat__internal_8c.html" target="_top" xlink:title="API functions to handle library errors.">
<polygon fill="white" stroke="#666666" points="211.5,-19 104.5,-19 104.5,0 211.5,0 211.5,-19"/>
<text text-anchor="middle" x="158" y="-7" font-family="Helvetica,sans-Serif" font-size="10.00">src/libquat_internal.c</text>
</a>
</g>
</g>
<!-- Node1&#45;&gt;Node3 -->
<g id="edge2" class="edge">
<title>Node1&#45;&gt;Node3</title>
<path fill="none" stroke="#63b8ff" d="M202.25,-48.32C191.19,-38.87 177.37,-27.06 168.14,-19.17"/>
<polygon fill="#63b8ff" stroke="#63b8ff" points="200.16,-51.15 210.04,-54.98 204.71,-45.83 200.16,-51.15"/>
</g>
<!-- Node4 -->
<g id="node4" class="node">
<title>Node4</title>
<g id="a_node4"><a xlink:href="../../d4/d0e/libquat__quat_8cpp.html" target="_top" xlink:title="API Functions related to 3D Quaternion operations.">
<polygon fill="white" stroke="#666666" points="334,-19 230,-19 230,0 334,0 334,-19"/>
<text text-anchor="middle" x="282" y="-7" font-family="Helvetica,sans-Serif" font-size="10.00">src/libquat_quat.cpp</text>
</a>
</g>
</g>
<!-- Node1&#45;&gt;Node4 -->
<g id="edge3" class="edge">
<title>Node1&#45;&gt;Node4</title>
<path fill="none" stroke="#63b8ff" d="M237.75,-48.32C248.81,-38.87 262.63,-27.06 271.86,-19.17"/>
<polygon fill="#63b8ff" stroke="#63b8ff" points="235.29,-45.83 229.96,-54.98 239.84,-51.15 235.29,-45.83"/>
</g>
<!-- Node5 -->
<g id="node5" class="node">
<title>Node5</title>
<g id="a_node5"><a xlink:href="../../d8/d03/libquat__vec_8cpp.html" target="_top" xlink:title="API Functions related to 3D vector operations.">
<polygon fill="white" stroke="#666666" points="453.5,-19 352.5,-19 352.5,0 453.5,0 453.5,-19"/>
<text text-anchor="middle" x="403" y="-7" font-family="Helvetica,sans-Serif" font-size="10.00">src/libquat_vec.cpp</text>
</a>
</g>
</g>
<!-- Node1&#45;&gt;Node5 -->
<g id="edge4" class="edge">
<title>Node1&#45;&gt;Node5</title>
<path fill="none" stroke="#63b8ff" d="M259.07,-52.18C293.3,-42.27 342.29,-28.08 373.37,-19.08"/>
<polygon fill="#63b8ff" stroke="#63b8ff" points="258.03,-48.84 249.4,-54.98 259.98,-55.56 258.03,-48.84"/>
</g>
</g>
</svg>
