<?xml version="1.0" encoding="UTF-8" standalone="no"?>
<!DOCTYPE svg PUBLIC "-//W3C//DTD SVG 1.1//EN"
 "http://www.w3.org/Graphics/SVG/1.1/DTD/svg11.dtd">
<!-- Generated by graphviz version 2.44.1 (20200629.0846)
 -->
<!-- Title: src/libquat_err.c Pages: 1 -->
<svg width="301pt" height="140pt"
 viewBox="0.00 0.00 301.00 140.00" xmlns="http://www.w3.org/2000/svg" xmlns:xlink="http://www.w3.org/1999/xlink">
<g id="graph0" class="graph" transform="scale(1 1) rotate(0) translate(4 136)">
<title>src/libquat_err.c</title>
<polygon fill="white" stroke="transparent" points="-4,4 -4,-136 297,-136 297,4 -4,4"/>
<!-- Node1 -->
<g id="node1" class="node">
<title>Node1</title>
<g id="a_node1"><a xlink:title="API functions to handle library errors.">
<polygon fill="#bfbfbf" stroke="black" points="80,-112.5 80,-131.5 166,-131.5 166,-112.5 80,-112.5"/>
<text text-anchor="middle" x="123" y="-119.5" font-family="Helvetica,sans-Serif" font-size="10.00">src/libquat_err.c</text>
</a>
</g>
</g>
<!-- Node2 -->
<g id="node2" class="node">
<title>Node2</title>
<g id="a_node2"><a xlink:title=" ">
<polygon fill="white" stroke="#bfbfbf" points="0,-56.5 0,-75.5 46,-75.5 46,-56.5 0,-56.5"/>
<text text-anchor="middle" x="23" y="-63.5" font-family="Helvetica,sans-Serif" font-size="10.00">stdio.h</text>
</a>
</g>
</g>
<!-- Node1&#45;&gt;Node2 -->
<g id="edge1" class="edge">
<title>Node1&#45;&gt;Node2</title>
<path fill="none" stroke="midnightblue" d="M106.93,-112.32C91.04,-103.74 66.49,-90.49 48.04,-80.52"/>
<polygon fill="midnightblue" stroke="midnightblue" points="49.49,-77.33 39.03,-75.65 46.16,-83.49 49.49,-77.33"/>
</g>
<!-- Node3 -->
<g id="node3" class="node">
<title>Node3</title>
<g id="a_node3"><a xlink:title=" ">
<polygon fill="white" stroke="#bfbfbf" points="64.5,-56.5 64.5,-75.5 113.5,-75.5 113.5,-56.5 64.5,-56.5"/>
<text text-anchor="middle" x="89" y="-63.5" font-family="Helvetica,sans-Serif" font-size="10.00">string.h</text>
</a>
</g>
</g>
<!-- Node1&#45;&gt;Node3 -->
<g id="edge2" class="edge">
<title>Node1&#45;&gt;Node3</title>
<path fill="none" stroke="midnightblue" d="M117.39,-112.08C112.63,-104.53 105.68,-93.49 99.85,-84.23"/>
<polygon fill="midnightblue" stroke="midnightblue" points="102.8,-82.35 94.51,-75.75 96.88,-86.08 102.8,-82.35"/>
</g>
<!-- Node4 -->
<g id="node4" class="node">
<title>Node4</title>
<g id="a_node4"><a xlink:href="../../dc/d7a/libquat_8h.html" target="_top" xlink:title="Library that provides data types for 3D vectors and quaternions, inter&#45;conversions and related operat...">
<polygon fill="white" stroke="black" points="131.5,-56.5 131.5,-75.5 184.5,-75.5 184.5,-56.5 131.5,-56.5"/>
<text text-anchor="middle" x="158" y="-63.5" font-family="Helvetica,sans-Serif" font-size="10.00">libquat.h</text>
</a>
</g>
</g>
<!-- Node1&#45;&gt;Node4 -->
<g id="edge3" class="edge">
<title>Node1&#45;&gt;Node4</title>
<path fill="none" stroke="midnightblue" d="M128.78,-112.08C133.67,-104.53 140.83,-93.49 146.83,-84.23"/>
<polygon fill="midnightblue" stroke="midnightblue" points="149.83,-86.05 152.33,-75.75 143.95,-82.24 149.83,-86.05"/>
</g>
<!-- Node6 -->
<g id="node6" class="node">
<title>Node6</title>
<g id="a_node6"><a xlink:href="../../d7/dd9/libquat__internal_8h.html" target="_top" xlink:title="API functions to handle library errors.">
<polygon fill="white" stroke="black" points="203,-56.5 203,-75.5 293,-75.5 293,-56.5 203,-56.5"/>
<text text-anchor="middle" x="248" y="-63.5" font-family="Helvetica,sans-Serif" font-size="10.00">libquat_internal.h</text>
</a>
</g>
</g>
<!-- Node1&#45;&gt;Node6 -->
<g id="edge5" class="edge">
<title>Node1&#45;&gt;Node6</title>
<path fill="none" stroke="midnightblue" d="M142.81,-112.44C163.29,-103.6 195.48,-89.69 218.86,-79.59"/>
<polygon fill="midnightblue" stroke="midnightblue" points="220.49,-82.7 228.29,-75.52 217.72,-76.27 220.49,-82.7"/>
</g>
<!-- Node5 -->
<g id="node5" class="node">
<title>Node5</title>
<g id="a_node5"><a xlink:title=" ">
<polygon fill="white" stroke="#bfbfbf" points="131,-0.5 131,-19.5 185,-19.5 185,-0.5 131,-0.5"/>
<text text-anchor="middle" x="158" y="-7.5" font-family="Helvetica,sans-Serif" font-size="10.00">iostream</text>
</a>
</g>
</g>
<!-- Node4&#45;&gt;Node5 -->
<g id="edge4" class="edge">
<title>Node4&#45;&gt;Node5</title>
<path fill="none" stroke="midnightblue" d="M158,-56.08C158,-49.01 158,-38.86 158,-29.99"/>
<polygon fill="midnightblue" stroke="midnightblue" points="161.5,-29.75 158,-19.75 154.5,-29.75 161.5,-29.75"/>
</g>
</g>
</svg>
