<?xml version="1.0" encoding="UTF-8" standalone="no"?>
<!DOCTYPE svg PUBLIC "-//W3C//DTD SVG 1.1//EN"
 "http://www.w3.org/Graphics/SVG/1.1/DTD/svg11.dtd">
<!-- Generated by graphviz version 6.0.1 (20220911.1526)
 -->
<!-- Title: operator&lt;&lt; Pages: 1 -->
<svg width="167pt" height="101pt"
 viewBox="0.00 0.00 167.00 101.00" xmlns="http://www.w3.org/2000/svg" xmlns:xlink="http://www.w3.org/1999/xlink">
<g id="graph0" class="graph" transform="scale(1 1) rotate(0) translate(4 97)">
<title>operator&lt;&lt;</title>
<!-- Node1 -->
<g id="node1" class="node">
<title>Node1</title>
<g id="a_node1"><a xlink:title=" ">
<polygon fill="#999999" stroke="#666666" points="64,-56 0,-56 0,-37 64,-37 64,-56"/>
<text text-anchor="middle" x="32" y="-44" font-family="Helvetica,sans-Serif" font-size="10.00">operator&lt;&lt;</text>
</a>
</g>
</g>
<!-- Node2 -->
<g id="node2" class="node">
<title>Node2</title>
<g id="a_node2"><a target="_blank" xlink:href="http://en.cppreference.com/w/cpp/io/manip/left.html#" xlink:title=" ">
<polygon fill="white" stroke="#666666" points="154.5,-93 104.5,-93 104.5,-74 154.5,-74 154.5,-93"/>
<text text-anchor="middle" x="129.5" y="-81" font-family="Helvetica,sans-Serif" font-size="10.00">std::left</text>
</a>
</g>
</g>
<!-- Node1&#45;&gt;Node2 -->
<g id="edge1" class="edge">
<title>Node1&#45;&gt;Node2</title>
<path fill="none" stroke="#63b8ff" d="M57.59,-56.03C68.93,-60.42 82.57,-65.7 94.84,-70.46"/>
<polygon fill="#63b8ff" stroke="#63b8ff" points="93.73,-73.78 104.32,-74.13 96.26,-67.26 93.73,-73.78"/>
</g>
<!-- Node3 -->
<g id="node3" class="node">
<title>Node3</title>
<g id="a_node3"><a target="_blank" xlink:href="http://en.cppreference.com/w/cpp/io/manip/setfill.html#" xlink:title=" ">
<polygon fill="white" stroke="#666666" points="159,-56 100,-56 100,-37 159,-37 159,-56"/>
<text text-anchor="middle" x="129.5" y="-44" font-family="Helvetica,sans-Serif" font-size="10.00">std::setfill</text>
</a>
</g>
</g>
<!-- Node1&#45;&gt;Node3 -->
<g id="edge2" class="edge">
<title>Node1&#45;&gt;Node3</title>
<path fill="none" stroke="#63b8ff" d="M64.01,-46.5C72.21,-46.5 81.18,-46.5 89.74,-46.5"/>
<polygon fill="#63b8ff" stroke="#63b8ff" points="89.91,-50 99.91,-46.5 89.91,-43 89.91,-50"/>
</g>
<!-- Node4 -->
<g id="node4" class="node">
<title>Node4</title>
<g id="a_node4"><a target="_blank" xlink:href="http://en.cppreference.com/w/cpp/io/manip/setw.html#" xlink:title=" ">
<polygon fill="white" stroke="#666666" points="158,-19 101,-19 101,0 158,0 158,-19"/>
<text text-anchor="middle" x="129.5" y="-7" font-family="Helvetica,sans-Serif" font-size="10.00">std::setw</text>
</a>
</g>
</g>
<!-- Node1&#45;&gt;Node4 -->
<g id="edge3" class="edge">
<title>Node1&#45;&gt;Node4</title>
<path fill="none" stroke="#63b8ff" d="M57.59,-36.97C68.76,-32.65 82.15,-27.46 94.27,-22.76"/>
<polygon fill="#63b8ff" stroke="#63b8ff" points="95.6,-26 103.66,-19.12 93.07,-19.47 95.6,-26"/>
</g>
</g>
</svg>
