<?xml version="1.0" encoding="UTF-8" standalone="no"?>
<!DOCTYPE svg PUBLIC "-//W3C//DTD SVG 1.1//EN"
 "http://www.w3.org/Graphics/SVG/1.1/DTD/svg11.dtd">
<!-- Generated by graphviz version 2.44.1 (20200629.0846)
 -->
<!-- Title: src/libquat_err.c Pages: 1 -->
<svg width="301pt" height="84pt"
 viewBox="0.00 0.00 301.00 84.00" xmlns="http://www.w3.org/2000/svg" xmlns:xlink="http://www.w3.org/1999/xlink">
<g id="graph0" class="graph" transform="scale(1 1) rotate(0) translate(4 80)">
<title>src/libquat_err.c</title>
<polygon fill="white" stroke="transparent" points="-4,4 -4,-80 297,-80 297,4 -4,4"/>
<!-- Node1 -->
<g id="node1" class="node">
<title>Node1</title>
<g id="a_node1"><a xlink:title="API functions to handle library errors.">
<polygon fill="#bfbfbf" stroke="black" points="80,-56.5 80,-75.5 166,-75.5 166,-56.5 80,-56.5"/>
<text text-anchor="middle" x="123" y="-63.5" font-family="Helvetica,sans-Serif" font-size="10.00">src/libquat_err.c</text>
</a>
</g>
</g>
<!-- Node2 -->
<g id="node2" class="node">
<title>Node2</title>
<g id="a_node2"><a xlink:title=" ">
<polygon fill="white" stroke="#bfbfbf" points="0,-0.5 0,-19.5 46,-19.5 46,-0.5 0,-0.5"/>
<text text-anchor="middle" x="23" y="-7.5" font-family="Helvetica,sans-Serif" font-size="10.00">stdio.h</text>
</a>
</g>
</g>
<!-- Node1&#45;&gt;Node2 -->
<g id="edge1" class="edge">
<title>Node1&#45;&gt;Node2</title>
<path fill="none" stroke="midnightblue" d="M106.93,-56.32C91.04,-47.74 66.49,-34.49 48.04,-24.52"/>
<polygon fill="midnightblue" stroke="midnightblue" points="49.49,-21.33 39.03,-19.65 46.16,-27.49 49.49,-21.33"/>
</g>
<!-- Node3 -->
<g id="node3" class="node">
<title>Node3</title>
<g id="a_node3"><a xlink:title=" ">
<polygon fill="white" stroke="#bfbfbf" points="64.5,-0.5 64.5,-19.5 113.5,-19.5 113.5,-0.5 64.5,-0.5"/>
<text text-anchor="middle" x="89" y="-7.5" font-family="Helvetica,sans-Serif" font-size="10.00">string.h</text>
</a>
</g>
</g>
<!-- Node1&#45;&gt;Node3 -->
<g id="edge2" class="edge">
<title>Node1&#45;&gt;Node3</title>
<path fill="none" stroke="midnightblue" d="M117.39,-56.08C112.63,-48.53 105.68,-37.49 99.85,-28.23"/>
<polygon fill="midnightblue" stroke="midnightblue" points="102.8,-26.35 94.51,-19.75 96.88,-30.08 102.8,-26.35"/>
</g>
<!-- Node4 -->
<g id="node4" class="node">
<title>Node4</title>
<g id="a_node4"><a xlink:href="../../dc/d7a/libquat_8h.html" target="_top" xlink:title="Library that provides data types for 3D vectors and quaternions, inter&#45;conversions and related operat...">
<polygon fill="white" stroke="black" points="131.5,-0.5 131.5,-19.5 184.5,-19.5 184.5,-0.5 131.5,-0.5"/>
<text text-anchor="middle" x="158" y="-7.5" font-family="Helvetica,sans-Serif" font-size="10.00">libquat.h</text>
</a>
</g>
</g>
<!-- Node1&#45;&gt;Node4 -->
<g id="edge3" class="edge">
<title>Node1&#45;&gt;Node4</title>
<path fill="none" stroke="midnightblue" d="M128.78,-56.08C133.67,-48.53 140.83,-37.49 146.83,-28.23"/>
<polygon fill="midnightblue" stroke="midnightblue" points="149.83,-30.05 152.33,-19.75 143.95,-26.24 149.83,-30.05"/>
</g>
<!-- Node5 -->
<g id="node5" class="node">
<title>Node5</title>
<g id="a_node5"><a xlink:href="../../d7/dd9/libquat__internal_8h.html" target="_top" xlink:title="API functions to handle library errors.">
<polygon fill="white" stroke="black" points="203,-0.5 203,-19.5 293,-19.5 293,-0.5 203,-0.5"/>
<text text-anchor="middle" x="248" y="-7.5" font-family="Helvetica,sans-Serif" font-size="10.00">libquat_internal.h</text>
</a>
</g>
</g>
<!-- Node1&#45;&gt;Node5 -->
<g id="edge4" class="edge">
<title>Node1&#45;&gt;Node5</title>
<path fill="none" stroke="midnightblue" d="M142.81,-56.44C163.29,-47.6 195.48,-33.69 218.86,-23.59"/>
<polygon fill="midnightblue" stroke="midnightblue" points="220.49,-26.7 228.29,-19.52 217.72,-20.27 220.49,-26.7"/>
</g>
</g>
</svg>
