<?xml version="1.0" encoding="UTF-8" standalone="no"?>
<!DOCTYPE svg PUBLIC "-//W3C//DTD SVG 1.1//EN"
 "http://www.w3.org/Graphics/SVG/1.1/DTD/svg11.dtd">
<!-- Generated by graphviz version 2.44.1 (20200629.0846)
 -->
<!-- Title: Library for 3D Vectors &amp; Quaternions Pages: 1 -->
<svg width="285pt" height="187pt"
 viewBox="0.00 0.00 285.00 187.00" xmlns="http://www.w3.org/2000/svg" xmlns:xlink="http://www.w3.org/1999/xlink">
<g id="graph0" class="graph" transform="scale(1 1) rotate(0) translate(4 183)">
<title>Library for 3D Vectors &amp; Quaternions</title>
<polygon fill="white" stroke="transparent" points="-4,4 -4,-183 281,-183 281,4 -4,4"/>
<!-- Node5 -->
<g id="node1" class="node">
<title>Node5</title>
<g id="a_node1"><a xlink:href="../../dc/d9a/group__quats.html" target="_top" xlink:title=" ">
<polygon fill="white" stroke="black" points="277,-179 149,-179 149,-160 277,-160 277,-179"/>
<text text-anchor="middle" x="213" y="-167" font-family="Helvetica,sans-Serif" font-size="10.00">3D Quaternion operations</text>
</a>
</g>
</g>
<!-- Node4 -->
<g id="node2" class="node">
<title>Node4</title>
<g id="a_node2"><a xlink:href="../../dd/d7a/group__matrix.html" target="_top" xlink:title=" ">
<polygon fill="white" stroke="black" points="259,-142 167,-142 167,-123 259,-123 259,-142"/>
<text text-anchor="middle" x="213" y="-130" font-family="Helvetica,sans-Serif" font-size="10.00">Matrix operations</text>
</a>
</g>
</g>
<!-- Node3 -->
<g id="node3" class="node">
<title>Node3</title>
<g id="a_node3"><a xlink:href="../../de/d7b/group__vec__3d.html" target="_top" xlink:title=" ">
<polygon fill="white" stroke="black" points="267.5,-105 158.5,-105 158.5,-86 267.5,-86 267.5,-105"/>
<text text-anchor="middle" x="213" y="-93" font-family="Helvetica,sans-Serif" font-size="10.00">3D Vector operations</text>
</a>
</g>
</g>
<!-- Node6 -->
<g id="node4" class="node">
<title>Node6</title>
<g id="a_node4"><a xlink:href="../../d4/d69/group__dual__quats.html" target="_top" xlink:title=" ">
<polygon fill="white" stroke="black" points="264.5,-67.5 161.5,-67.5 161.5,-37.5 264.5,-37.5 264.5,-67.5"/>
<text text-anchor="start" x="169.5" y="-55.5" font-family="Helvetica,sans-Serif" font-size="10.00">3D Dual&#45;Quaternion</text>
<text text-anchor="middle" x="213" y="-44.5" font-family="Helvetica,sans-Serif" font-size="10.00"> operations</text>
</a>
</g>
</g>
<!-- Node2 -->
<g id="node5" class="node">
<title>Node2</title>
<g id="a_node5"><a xlink:href="../../d6/d87/group__errors.html" target="_top" xlink:title=" ">
<polygon fill="white" stroke="black" points="249,-19 177,-19 177,0 249,0 249,-19"/>
<text text-anchor="middle" x="213" y="-7" font-family="Helvetica,sans-Serif" font-size="10.00">Error module</text>
</a>
</g>
</g>
<!-- Node1 -->
<g id="node6" class="node">
<title>Node1</title>
<g id="a_node6"><a xlink:title=" ">
<polygon fill="#bfbfbf" stroke="black" points="113,-110.5 0,-110.5 0,-80.5 113,-80.5 113,-110.5"/>
<text text-anchor="start" x="8" y="-98.5" font-family="Helvetica,sans-Serif" font-size="10.00">Library for 3D Vectors</text>
<text text-anchor="middle" x="56.5" y="-87.5" font-family="Helvetica,sans-Serif" font-size="10.00"> &amp; Quaternions</text>
</a>
</g>
</g>
<!-- Node1&#45;&gt;Node5 -->
<g id="edge4" class="edge">
<title>Node1&#45;&gt;Node5</title>
<path fill="none" stroke="black" d="M86.99,-116.38C104.39,-127.97 127.22,-141.94 149,-151.5 156.39,-154.75 164.53,-157.58 172.44,-159.97"/>
<polygon fill="black" stroke="black" points="88.66,-113.29 78.41,-110.58 84.73,-119.08 88.66,-113.29"/>
</g>
<!-- Node1&#45;&gt;Node4 -->
<g id="edge3" class="edge">
<title>Node1&#45;&gt;Node4</title>
<path fill="none" stroke="black" d="M123.03,-111.19C139.78,-115.2 157.28,-119.4 172.29,-122.99"/>
<polygon fill="black" stroke="black" points="123.82,-107.78 113.28,-108.86 122.19,-114.59 123.82,-107.78"/>
</g>
<!-- Node1&#45;&gt;Node3 -->
<g id="edge2" class="edge">
<title>Node1&#45;&gt;Node3</title>
<path fill="none" stroke="black" d="M123.41,-95.5C135.08,-95.5 147.09,-95.5 158.37,-95.5"/>
<polygon fill="black" stroke="black" points="123.28,-92 113.28,-95.5 123.28,-99 123.28,-92"/>
</g>
<!-- Node1&#45;&gt;Node6 -->
<g id="edge5" class="edge">
<title>Node1&#45;&gt;Node6</title>
<path fill="none" stroke="black" d="M121.56,-77.67C134.83,-73.98 148.65,-70.13 161.36,-66.59"/>
<polygon fill="black" stroke="black" points="120.23,-74.41 111.54,-80.46 122.11,-81.15 120.23,-74.41"/>
</g>
<!-- Node1&#45;&gt;Node2 -->
<g id="edge1" class="edge">
<title>Node1&#45;&gt;Node2</title>
<path fill="none" stroke="black" d="M82.59,-73.49C100.17,-59.01 124.77,-40.58 149,-28.5 157.69,-24.17 167.56,-20.62 176.86,-17.81"/>
<polygon fill="black" stroke="black" points="79.97,-71.12 74.56,-80.23 84.47,-76.48 79.97,-71.12"/>
</g>
</g>
</svg>
