<?xml version="1.0" encoding="UTF-8" standalone="no"?>
<!DOCTYPE svg PUBLIC "-//W3C//DTD SVG 1.1//EN"
 "http://www.w3.org/Graphics/SVG/1.1/DTD/svg11.dtd">
<!-- Generated by graphviz version 6.0.1 (20220911.1526)
 -->
<!-- Title: Library for 3D Vectors &amp; Quaternions Pages: 1 -->
<svg width="285pt" height="187pt"
 viewBox="0.00 0.00 285.00 186.50" xmlns="http://www.w3.org/2000/svg" xmlns:xlink="http://www.w3.org/1999/xlink">
<g id="graph0" class="graph" transform="scale(1 1) rotate(0) translate(4 182.5)">
<title>Library for 3D Vectors &amp; Quaternions</title>
<!-- Node6 -->
<g id="node1" class="node">
<title>Node6</title>
<g id="a_node1"><a xlink:href="../../d4/d69/group__dual__quats.html" target="_top" xlink:title=" ">
<polygon fill="white" stroke="#666666" points="264.5,-178.5 161.5,-178.5 161.5,-148.5 264.5,-148.5 264.5,-178.5"/>
<text text-anchor="start" x="169.5" y="-166.5" font-family="Helvetica,sans-Serif" font-size="10.00">3D Dual&#45;Quaternion</text>
<text text-anchor="middle" x="213" y="-155.5" font-family="Helvetica,sans-Serif" font-size="10.00"> operations</text>
</a>
</g>
</g>
<!-- Node2 -->
<g id="node2" class="node">
<title>Node2</title>
<g id="a_node2"><a xlink:href="../../d6/d87/group__errors.html" target="_top" xlink:title=" ">
<polygon fill="white" stroke="#666666" points="249,-130 177,-130 177,-111 249,-111 249,-130"/>
<text text-anchor="middle" x="213" y="-118" font-family="Helvetica,sans-Serif" font-size="10.00">Error module</text>
</a>
</g>
</g>
<!-- Node4 -->
<g id="node3" class="node">
<title>Node4</title>
<g id="a_node3"><a xlink:href="../../dd/d7a/group__matrix.html" target="_top" xlink:title=" ">
<polygon fill="white" stroke="#666666" points="259,-93 167,-93 167,-74 259,-74 259,-93"/>
<text text-anchor="middle" x="213" y="-81" font-family="Helvetica,sans-Serif" font-size="10.00">Matrix operations</text>
</a>
</g>
</g>
<!-- Node1 -->
<g id="node4" class="node">
<title>Node1</title>
<g id="a_node4"><a xlink:title=" ">
<polygon fill="#999999" stroke="#666666" points="113,-98.5 0,-98.5 0,-68.5 113,-68.5 113,-98.5"/>
<text text-anchor="start" x="8" y="-86.5" font-family="Helvetica,sans-Serif" font-size="10.00">Library for 3D Vectors</text>
<text text-anchor="middle" x="56.5" y="-75.5" font-family="Helvetica,sans-Serif" font-size="10.00"> &amp; Quaternions</text>
</a>
</g>
</g>
<!-- Node1&#45;&gt;Node6 -->
<g id="edge5" class="edge">
<title>Node1&#45;&gt;Node6</title>
<path fill="none" stroke="black" d="M88.01,-104.14C105.43,-115.42 127.93,-129.15 149,-139.5 155.41,-142.65 162.34,-145.66 169.18,-148.42"/>
<polygon fill="black" stroke="black" points="89.69,-101.06 79.4,-98.5 85.85,-106.91 89.69,-101.06"/>
</g>
<!-- Node1&#45;&gt;Node2 -->
<g id="edge1" class="edge">
<title>Node1&#45;&gt;Node2</title>
<path fill="none" stroke="black" d="M123.13,-99.22C141.63,-103.65 161.03,-108.29 176.97,-112.11"/>
<polygon fill="black" stroke="black" points="123.82,-95.78 113.28,-96.86 122.19,-102.59 123.82,-95.78"/>
</g>
<!-- Node1&#45;&gt;Node4 -->
<g id="edge3" class="edge">
<title>Node1&#45;&gt;Node4</title>
<path fill="none" stroke="black" d="M123.34,-83.5C138.04,-83.5 153.31,-83.5 166.95,-83.5"/>
<polygon fill="black" stroke="black" points="123.28,-80 113.28,-83.5 123.28,-87 123.28,-80"/>
</g>
<!-- Node5 -->
<g id="node5" class="node">
<title>Node5</title>
<g id="a_node5"><a xlink:href="../../dc/d9a/group__quats.html" target="_top" xlink:title=" ">
<polygon fill="white" stroke="#666666" points="277,-56 149,-56 149,-37 277,-37 277,-56"/>
<text text-anchor="middle" x="213" y="-44" font-family="Helvetica,sans-Serif" font-size="10.00">3D Quaternion operations</text>
</a>
</g>
</g>
<!-- Node1&#45;&gt;Node5 -->
<g id="edge4" class="edge">
<title>Node1&#45;&gt;Node5</title>
<path fill="none" stroke="black" d="M123.03,-67.81C139.78,-63.8 157.28,-59.6 172.29,-56.01"/>
<polygon fill="black" stroke="black" points="122.19,-64.41 113.28,-70.14 123.82,-71.22 122.19,-64.41"/>
</g>
<!-- Node3 -->
<g id="node6" class="node">
<title>Node3</title>
<g id="a_node6"><a xlink:href="../../de/d7b/group__vec__3d.html" target="_top" xlink:title=" ">
<polygon fill="white" stroke="#666666" points="267.5,-19 158.5,-19 158.5,0 267.5,0 267.5,-19"/>
<text text-anchor="middle" x="213" y="-7" font-family="Helvetica,sans-Serif" font-size="10.00">3D Vector operations</text>
</a>
</g>
</g>
<!-- Node1&#45;&gt;Node3 -->
<g id="edge2" class="edge">
<title>Node1&#45;&gt;Node3</title>
<path fill="none" stroke="black" d="M87.79,-62.68C105.14,-51.44 127.64,-37.96 149,-28.5 157.15,-24.89 166.18,-21.72 174.8,-19.05"/>
<polygon fill="black" stroke="black" points="85.65,-59.9 79.22,-68.33 89.5,-65.75 85.65,-59.9"/>
</g>
</g>
</svg>
