<?xml version="1.0" encoding="UTF-8" standalone="no"?>
<!DOCTYPE svg PUBLIC "-//W3C//DTD SVG 1.1//EN"
 "http://www.w3.org/Graphics/SVG/1.1/DTD/svg11.dtd">
<!-- Generated by graphviz version 2.44.1 (20200629.0846)
 -->
<!-- Title: include/libquat.h Pages: 1 -->
<svg width="526pt" height="84pt"
 viewBox="0.00 0.00 526.00 84.00" xmlns="http://www.w3.org/2000/svg" xmlns:xlink="http://www.w3.org/1999/xlink">
<g id="graph0" class="graph" transform="scale(1 1) rotate(0) translate(4 80)">
<title>include/libquat.h</title>
<polygon fill="white" stroke="transparent" points="-4,4 -4,-80 522,-80 522,4 -4,4"/>
<!-- Node1 -->
<g id="node1" class="node">
<title>Node1</title>
<g id="a_node1"><a xlink:title="Library that provides data types for 3D vectors and quaternions, inter&#45;conversions and related operat...">
<polygon fill="#bfbfbf" stroke="black" points="233.5,-56.5 233.5,-75.5 320.5,-75.5 320.5,-56.5 233.5,-56.5"/>
<text text-anchor="middle" x="277" y="-63.5" font-family="Helvetica,sans-Serif" font-size="10.00">include/libquat.h</text>
</a>
</g>
</g>
<!-- Node2 -->
<g id="node2" class="node">
<title>Node2</title>
<g id="a_node2"><a xlink:href="../../dd/dc7/libquat__err_8c.html" target="_top" xlink:title="API functions to handle library errors.">
<polygon fill="white" stroke="black" points="0,-0.5 0,-19.5 86,-19.5 86,-0.5 0,-0.5"/>
<text text-anchor="middle" x="43" y="-7.5" font-family="Helvetica,sans-Serif" font-size="10.00">src/libquat_err.c</text>
</a>
</g>
</g>
<!-- Node1&#45;&gt;Node2 -->
<g id="edge1" class="edge">
<title>Node1&#45;&gt;Node2</title>
<path fill="none" stroke="midnightblue" d="M230,-54.15C185.78,-43.95 120.48,-28.88 79.9,-19.52"/>
<polygon fill="midnightblue" stroke="midnightblue" points="229.39,-57.61 239.92,-56.44 230.97,-50.78 229.39,-57.61"/>
</g>
<!-- Node3 -->
<g id="node3" class="node">
<title>Node3</title>
<g id="a_node3"><a xlink:href="../../da/d4a/libquat__internal_8c.html" target="_top" xlink:title="API functions to handle library errors.">
<polygon fill="white" stroke="black" points="104.5,-0.5 104.5,-19.5 211.5,-19.5 211.5,-0.5 104.5,-0.5"/>
<text text-anchor="middle" x="158" y="-7.5" font-family="Helvetica,sans-Serif" font-size="10.00">src/libquat_internal.c</text>
</a>
</g>
</g>
<!-- Node1&#45;&gt;Node3 -->
<g id="edge2" class="edge">
<title>Node1&#45;&gt;Node3</title>
<path fill="none" stroke="midnightblue" d="M248.86,-52.23C226.6,-42.13 196.14,-28.31 176.77,-19.52"/>
<polygon fill="midnightblue" stroke="midnightblue" points="247.59,-55.5 258.14,-56.44 250.48,-49.12 247.59,-55.5"/>
</g>
<!-- Node4 -->
<g id="node4" class="node">
<title>Node4</title>
<g id="a_node4"><a xlink:href="../../d8/d4a/libquat__quat_8c.html" target="_top" xlink:title="API Functions related to 3D Quaternion operations.">
<polygon fill="white" stroke="black" points="230,-0.5 230,-19.5 324,-19.5 324,-0.5 230,-0.5"/>
<text text-anchor="middle" x="277" y="-7.5" font-family="Helvetica,sans-Serif" font-size="10.00">src/libquat_quat.c</text>
</a>
</g>
</g>
<!-- Node1&#45;&gt;Node4 -->
<g id="edge3" class="edge">
<title>Node1&#45;&gt;Node4</title>
<path fill="none" stroke="midnightblue" d="M277,-45.8C277,-36.91 277,-26.78 277,-19.75"/>
<polygon fill="midnightblue" stroke="midnightblue" points="273.5,-46.08 277,-56.08 280.5,-46.08 273.5,-46.08"/>
</g>
<!-- Node5 -->
<g id="node5" class="node">
<title>Node5</title>
<g id="a_node5"><a xlink:href="../../d2/dd2/libquat__vec_8c.html" target="_top" xlink:title="API Functions related to 3D vector operations.">
<polygon fill="white" stroke="black" points="342.5,-0.5 342.5,-19.5 433.5,-19.5 433.5,-0.5 342.5,-0.5"/>
<text text-anchor="middle" x="388" y="-7.5" font-family="Helvetica,sans-Serif" font-size="10.00">src/libquat_vec.c</text>
</a>
</g>
</g>
<!-- Node1&#45;&gt;Node5 -->
<g id="edge4" class="edge">
<title>Node1&#45;&gt;Node5</title>
<path fill="none" stroke="midnightblue" d="M304.01,-51.86C324.59,-41.85 352.34,-28.35 370.21,-19.65"/>
<polygon fill="midnightblue" stroke="midnightblue" points="302.3,-48.8 294.83,-56.32 305.36,-55.1 302.3,-48.8"/>
</g>
<!-- Node6 -->
<g id="node6" class="node">
<title>Node6</title>
<g id="a_node6"><a xlink:href="../../d8/db9/test_8c.html" target="_top" xlink:title="Simple program to test the different aspects of libquat library.">
<polygon fill="white" stroke="black" points="452,-0.5 452,-19.5 518,-19.5 518,-0.5 452,-0.5"/>
<text text-anchor="middle" x="485" y="-7.5" font-family="Helvetica,sans-Serif" font-size="10.00">tests/test.c</text>
</a>
</g>
</g>
<!-- Node1&#45;&gt;Node6 -->
<g id="edge5" class="edge">
<title>Node1&#45;&gt;Node6</title>
<path fill="none" stroke="midnightblue" d="M319.78,-53.89C359.06,-43.7 416.43,-28.8 452.2,-19.52"/>
<polygon fill="midnightblue" stroke="midnightblue" points="318.76,-50.54 309.96,-56.44 320.52,-57.32 318.76,-50.54"/>
</g>
</g>
</svg>
